<svg width="134" height="40" viewBox="0 0 134 40" fill="none" xmlns="http://www.w3.org/2000/svg">
<path d="M124.26 6.18739e-05H9.74504C9.38285 6.18739e-05 9.02537 6.19504e-05 8.66444 0.00210022C8.36231 0.0039817 8.06237 0.00978211 7.75741 0.0144858C7.10046 0.0309487 6.4352 0.0714016 5.77919 0.188994C5.11848 0.304705 4.50434 0.502416 3.90289 0.807843C3.31287 1.10995 2.77374 1.50249 2.30504 1.97122C1.83397 2.43879 1.44125 2.97916 1.14197 3.57158C0.83498 4.17208 0.640247 4.78921 0.525006 5.45039C0.405846 6.10405 0.36508 6.76523 0.348147 7.42657C0.339053 7.72918 0.337956 8.03288 0.333252 8.33564V31.6674C0.337956 31.9739 0.339053 32.2707 0.348147 32.5774C0.36508 33.2386 0.406003 33.8999 0.525006 34.5536C0.640247 35.2148 0.83498 35.8346 1.14197 36.4333C1.44129 37.0213 1.83279 37.5632 2.30504 38.0268C2.77192 38.4976 3.31134 38.8904 3.90273 39.1902C4.50434 39.4987 5.11848 39.6935 5.77919 39.813C6.4352 39.9305 7.10046 39.9693 7.75741 39.9875C8.06237 39.9942 8.36231 39.998 8.66444 39.998C9.02553 40 9.38301 40 9.74504 40H124.26C124.615 40 124.975 40 125.33 39.998C125.631 39.998 125.939 39.9942 126.24 39.9875C126.901 39.9693 127.564 39.9307 128.214 39.813C128.875 39.6935 129.49 39.4987 130.097 39.1903C130.688 38.8904 131.227 38.4975 131.694 38.0268C132.164 37.5632 132.556 37.0213 132.86 36.4333C133.163 35.8347 133.36 35.2148 133.472 34.5534C133.593 33.8999 133.632 33.2386 133.655 32.5774C133.659 32.2707 133.659 31.9738 133.659 31.6674C133.666 31.3088 133.666 30.9521 133.666 30.5877V9.41326C133.666 9.05186 133.666 8.69328 133.658 8.33564C133.658 8.03288 133.658 7.72934 133.655 7.42657C133.631 6.76523 133.593 6.10405 133.471 5.45039C133.36 4.78921 133.163 4.17224 132.86 3.57158C132.556 2.98079 132.164 2.43893 131.694 1.97138C131.226 1.50273 130.687 1.11014 130.097 0.807843C129.49 0.502416 128.875 0.304548 128.214 0.188994C127.564 0.0714016 126.901 0.0309487 126.24 0.0144858C125.939 0.00978211 125.631 0.00398059 125.33 0.00194232C124.975 6.08404e-05 124.615 6.18739e-05 124.26 6.18739e-05Z" fill="#C0C1C1"/>
<path d="M8.66925 39.1362C8.36852 39.1362 8.07501 39.1325 7.77664 39.1257C7.22474 39.1102 6.57014 39.0795 5.93154 38.9647C5.32899 38.8557 4.79355 38.6783 4.29606 38.4238C3.78557 38.1654 3.31997 37.8266 2.91709 37.4203C2.50842 37.0188 2.16819 36.5532 1.90987 36.0418C1.65384 35.5436 1.47886 35.0086 1.37381 34.406C1.25339 33.7419 1.22251 33.068 1.20949 32.5551C1.20322 32.3469 1.19507 31.6538 1.19507 31.6538V8.33564C1.19507 8.33564 1.20369 7.65313 1.20949 7.4526C1.22251 6.93551 1.25339 6.26209 1.37287 5.60467C1.47839 4.99868 1.65337 4.46418 1.9094 3.96386C2.16686 3.45294 2.50524 2.98701 2.91145 2.58411C3.31717 2.1773 3.78424 1.83668 4.29559 1.5747C4.80265 1.31725 5.3373 1.14133 5.92777 1.03769C6.59241 0.918691 7.26613 0.888901 7.77899 0.875887L8.66972 0.863815H125.325L126.226 0.876356C126.733 0.888899 127.406 0.918691 128.061 1.03675C128.656 1.14086 129.194 1.31772 129.71 1.57768C130.218 1.83784 130.681 2.17613 131.084 2.58019C131.488 2.98111 131.826 3.44677 132.094 3.96637C132.349 4.47092 132.522 5.00542 132.622 5.59401C132.737 6.21678 132.773 6.85633 132.794 7.45699C132.797 7.73639 132.797 8.0368 132.797 8.33564C132.805 8.70582 132.805 9.05813 132.805 9.41341V30.5879C132.805 30.9463 132.805 31.2961 132.797 31.6489C132.797 31.97 132.797 32.264 132.793 32.5667C132.773 33.1481 132.737 33.7872 132.624 34.3965C132.522 35.0017 132.349 35.5367 132.091 36.0448C131.825 36.5577 131.487 37.0213 131.089 37.4127C130.685 37.8211 130.219 38.1619 129.707 38.4219C129.195 38.6822 128.673 38.8546 128.061 38.9647C127.428 39.0795 126.774 39.1102 126.216 39.1257C125.921 39.1326 125.625 39.1361 125.33 39.1362L124.26 39.1383L8.66925 39.1362Z" fill="black"/>
<path d="M45.7399 25.4627H49.1941L47.9572 22.1518C47.7872 21.6945 47.6201 21.1894 47.4547 20.6364C47.3013 21.1391 47.1391 21.6391 46.9683 22.1361L45.7399 25.4627ZM49.7841 27.0343H45.1572L44.0246 30.1298H41.9902L46.5215 18.57H48.4442L53.0789 30.1298H50.9411L49.7841 27.0343ZM59.1783 28.0275C59.5799 27.488 59.7807 26.6994 59.7807 25.6623C59.7807 24.6997 59.6147 24.0016 59.2821 23.5679C58.9494 23.1346 58.5071 22.918 57.954 22.918C57.5708 22.918 57.217 23.008 56.8928 23.189C56.5687 23.3699 56.2597 23.612 55.9676 23.9152V28.5264C56.1639 28.6221 56.3928 28.6978 56.6534 28.7538C56.9078 28.8088 57.1673 28.8367 57.4276 28.8372C58.1935 28.8372 58.7768 28.5673 59.1785 28.0277L59.1783 28.0275ZM53.9971 23.6278C53.9971 22.9895 53.9754 22.2879 53.9334 21.5217H55.784C55.8528 21.8781 55.9006 22.2424 55.9276 22.6148C56.6934 21.7798 57.5708 21.3621 58.5601 21.3621C59.1343 21.3621 59.6666 21.5073 60.1554 21.797C60.6451 22.0867 61.0402 22.5441 61.3408 23.1689C61.6412 23.794 61.7916 24.5882 61.7916 25.5504C61.7916 26.5557 61.6196 27.4146 61.2763 28.1274C60.9338 28.8398 60.4535 29.3795 59.8367 29.7467C59.2199 30.1136 58.5071 30.2975 57.6987 30.2975C57.1134 30.2975 56.5366 30.1987 55.9676 30.0021V33.5602L53.9971 33.7278V23.6278ZM68.234 28.0275C68.6357 27.488 68.8364 26.6994 68.8364 25.6623C68.8364 24.6997 68.6704 24.0016 68.3378 23.5679C68.005 23.1346 67.5627 22.918 67.0095 22.918C66.6263 22.918 66.2726 23.008 65.9484 23.189C65.6243 23.3699 65.3152 23.612 65.0233 23.9152V28.5264C65.2193 28.6221 65.4484 28.6978 65.709 28.7538C65.9634 28.8088 66.2229 28.8367 66.4832 28.8372C67.2491 28.8372 67.8324 28.5673 68.234 28.0277V28.0275ZM63.0526 23.6278C63.0526 22.9895 63.031 22.2879 62.989 21.5217H64.8394C64.9084 21.8781 64.9562 22.2424 64.9832 22.6148C65.7489 21.7798 66.6263 21.3621 67.616 21.3621C68.1902 21.3621 68.7221 21.5073 69.211 21.797C69.7007 22.0867 70.0956 22.5441 70.3963 23.1689C70.6968 23.794 70.847 24.5882 70.847 25.5504C70.847 26.5557 70.6751 27.4146 70.3319 28.1274C69.9893 28.8398 69.5091 29.3795 68.8921 29.7467C68.2754 30.1136 67.5627 30.2975 66.7543 30.2975C66.169 30.2975 65.5921 30.1987 65.0233 30.0021V33.5602L63.0526 33.7278V23.6278ZM74.5644 29.583C73.7132 29.1127 73.0593 28.4385 72.6016 27.5611C72.1442 26.6832 71.9159 25.6462 71.9159 24.4496C71.9159 23.1518 72.179 22.0494 72.7055 21.1426C73.2324 20.236 73.9489 19.5552 74.8558 19.1005C75.762 18.6458 76.7791 18.4185 77.907 18.4185C78.572 18.4185 79.2059 18.4914 79.8095 18.638C80.4133 18.7841 80.9756 18.9847 81.4974 19.2401L80.9947 20.7558C79.9466 20.2561 78.9466 20.006 77.9953 20.006C77.1919 20.006 76.4886 20.1774 75.8849 20.5204C75.281 20.8633 74.8119 21.3674 74.4765 22.0323C74.1419 22.6971 73.9738 23.4999 73.9738 24.4416C73.9738 25.2658 74.1032 25.9972 74.3611 26.6354C74.619 27.2735 75.0259 27.7792 75.5815 28.1512C76.1374 28.5236 76.8382 28.7097 77.6835 28.7097C78.0667 28.7097 78.4499 28.6779 78.8324 28.6138C79.2156 28.5501 79.5745 28.457 79.9093 28.3347V25.9971H77.2374V24.4654H81.8243V29.332C81.1589 29.6424 80.4622 29.8805 79.746 30.0423C79.0203 30.2069 78.2984 30.2891 77.5798 30.2891C76.4204 30.2891 75.4158 30.0539 74.5648 29.583H74.5644ZM87.7437 28.534C88.1533 28.3377 88.4887 28.0929 88.7491 27.8002V26.2047C88.2116 26.1464 87.7732 26.1169 87.4328 26.1169C86.6191 26.1169 86.0567 26.2486 85.7456 26.5118C85.4345 26.7751 85.279 27.1302 85.279 27.5767C85.279 28.0023 85.3919 28.3176 85.6177 28.5222C85.8441 28.727 86.1512 28.8295 86.539 28.8295C86.9327 28.8295 87.3344 28.731 87.7437 28.5341V28.534ZM88.9242 30.1298C88.8554 29.7947 88.8102 29.4145 88.7891 28.9888C88.4858 29.3508 88.0909 29.658 87.6039 29.9101C87.1178 30.1628 86.5686 30.2891 85.957 30.2891C85.4621 30.2891 85.0114 30.1918 84.6045 29.9982C84.1976 29.8038 83.8748 29.5115 83.6352 29.1205C83.3958 28.7296 83.2763 28.2524 83.2763 27.6885C83.2763 26.8536 83.5769 26.1876 84.178 25.6901C84.779 25.1926 85.781 24.9441 87.1853 24.9441C87.7124 24.9441 88.2332 24.9814 88.7491 25.0559V24.8881C88.7491 24.1277 88.587 23.5919 88.2622 23.2809C87.938 22.9699 87.4727 22.8141 86.8663 22.8141C86.4465 22.8141 85.9969 22.8752 85.5179 22.9975C85.0396 23.1202 84.6189 23.2661 84.2574 23.4364L83.9463 22.0002C84.2975 21.8409 84.76 21.6945 85.3348 21.5615C85.909 21.4289 86.5153 21.3622 87.1537 21.3622C87.8979 21.3622 88.5311 21.4751 89.0523 21.7014C89.5733 21.9275 89.9802 22.3157 90.2728 22.8658C90.5655 23.4162 90.7119 24.1573 90.7119 25.0879V28.5103C90.7119 28.8665 90.7328 29.4065 90.7754 30.1298H88.9242ZM92.4357 28.0633V17.8917L94.3977 17.7322V27.7127C94.3977 28.0794 94.4602 28.3386 94.5854 28.4902C94.7101 28.6417 94.9084 28.7176 95.18 28.7176C95.302 28.7176 95.4754 28.6882 95.6985 28.6299L95.9301 30.0421C95.7435 30.1166 95.516 30.1763 95.2475 30.2216C94.9959 30.2652 94.741 30.2877 94.4855 30.2891C93.1188 30.2891 92.4357 29.5473 92.4357 28.0633V28.0633ZM97.3421 28.0633V17.8917L99.3043 17.7322V27.7127C99.3043 28.0794 99.3666 28.3386 99.4919 28.4902C99.6167 28.6417 99.8148 28.7176 100.086 28.7176C100.208 28.7176 100.382 28.6882 100.605 28.6299L100.836 30.0421C100.65 30.1166 100.422 30.1763 100.154 30.2216C99.9024 30.2652 99.6476 30.2877 99.3921 30.2891C98.0252 30.2891 97.3421 29.5473 97.3421 28.0633ZM107.083 24.8246C107.046 24.1385 106.873 23.6236 106.564 23.2809C106.256 22.9378 105.844 22.7664 105.328 22.7664C104.828 22.7664 104.412 22.9389 104.08 23.2849C103.747 23.6307 103.53 24.1438 103.429 24.8246H107.083ZM109.006 26.0769H103.373C103.464 27.8798 104.323 28.7815 105.95 28.7815C106.355 28.7815 106.768 28.7324 107.191 28.634C107.607 28.5377 108.014 28.4055 108.408 28.2389L108.838 29.5873C107.876 30.0553 106.794 30.2892 105.591 30.2892C104.677 30.2892 103.905 30.1166 103.278 29.7709C102.65 29.425 102.178 28.928 101.861 28.2789C101.545 27.6304 101.387 26.8483 101.387 25.9333C101.387 24.9814 101.554 24.1625 101.89 23.4764C102.225 22.79 102.692 22.2664 103.29 21.9049C103.888 21.5427 104.578 21.3622 105.36 21.3622C106.173 21.3622 106.853 21.5524 107.399 21.9328C107.943 22.313 108.347 22.8196 108.611 23.4525C108.874 24.0853 109.006 24.7846 109.006 25.5504V26.0769ZM110.594 23.6837C110.594 23.2101 110.572 22.4899 110.53 21.5215H112.373C112.405 21.7609 112.435 22.0469 112.464 22.3792C112.493 22.7119 112.514 22.9815 112.524 23.189C112.753 22.8114 112.978 22.4936 113.198 22.2359C113.416 21.9804 113.678 21.7668 113.973 21.6056C114.267 21.4431 114.604 21.3621 114.981 21.3621C115.284 21.3621 115.545 21.3939 115.763 21.4579L115.516 23.165C115.324 23.1065 115.111 23.0773 114.877 23.0773C114.415 23.0773 114.01 23.1959 113.665 23.4323C113.319 23.6691 112.949 24.0589 112.556 24.6012V30.1296H110.594V23.6837ZM116.945 33.652C116.658 33.6016 116.421 33.5443 116.235 33.4804L116.594 32.0446C116.726 32.0816 116.895 32.1174 117.097 32.1524C117.286 32.1856 117.478 32.203 117.671 32.2041C118.543 32.2041 119.197 31.6428 119.633 30.5205L119.761 30.2016L116.586 21.5217H118.7L120.296 26.3723C120.556 27.202 120.724 27.8376 120.798 28.2789C120.949 27.6499 121.125 27.0271 121.325 26.412L122.944 21.5217H124.93L121.764 30.2414C121.466 31.066 121.144 31.7306 120.798 32.2358C120.452 32.7411 120.044 33.1161 119.574 33.3607C119.103 33.6053 118.535 33.7276 117.87 33.7276C117.54 33.7276 117.232 33.7025 116.945 33.652" fill="white"/>
<path fill-rule="evenodd" clip-rule="evenodd" d="M27.3561 7.27699H16.2284C10.9865 7.27699 9.06909 9.19438 9.06909 14.436V25.5642C9.06909 30.8057 10.9865 32.7232 16.2281 32.7232H27.3527C32.5946 32.7232 34.5155 30.8057 34.5155 25.5642V14.4363C34.5155 9.19453 32.5979 7.27715 27.3561 7.27715" fill="#C8102E"/>
<path d="M20.1707 22.0347H21.1912L20.6793 20.8442L20.1707 22.0347ZM19.9195 22.6344L19.6167 23.3271H18.9276L20.3932 20.0022H20.9888L22.4485 23.3271H21.7408L21.4421 22.6344H19.9195ZM31.0096 23.3249H31.6756V20.0024H31.0096V23.3249ZM28.3584 21.8973H29.5861V21.2917H28.3584V20.6107H30.1406V20.0043H27.6925V23.327H30.2049V22.721H28.3584V21.8973ZM25.7118 22.2899L24.9565 20.0021H24.4056L23.6503 22.2899L22.9153 20.0036H22.1969L23.3565 23.329H23.9153L24.6718 21.1448L25.428 23.3288H25.9917L27.1483 20.0036H26.4485L25.7118 22.2899ZM17.9105 21.9066C17.9105 22.4474 17.6421 22.7365 17.1543 22.7365C16.6641 22.7365 16.3939 22.4392 16.3939 21.8834V20.0041H15.7188V21.9064C15.7188 22.842 16.2388 23.3787 17.1452 23.3787C18.0606 23.3787 18.5854 22.832 18.5854 21.8787V20.0019H17.9105V21.9066ZM14.1082 20.0022H14.7831V23.3292H14.1082V21.9781H12.5841V23.3292H11.9089V20.0021H12.5841V21.3442H14.1082V20.0022ZM21.7922 15.7664C19.4566 15.7664 17.5565 13.8661 17.5565 11.5307H18.155C18.155 13.536 19.7867 15.1679 21.7922 15.1679C23.7978 15.1679 25.4294 13.5362 25.4294 11.5307H26.0279C26.0279 13.8662 24.1277 15.7664 21.7922 15.7664V15.7664ZM45.6291 13.4801C45.9048 13.2951 46.1108 13.0404 46.2472 12.7162C46.3838 12.3921 46.452 12.0213 46.452 11.6041C46.452 11.1945 46.3916 10.8295 46.2709 10.5095C46.1501 10.1892 45.9573 9.93396 45.6923 9.74361C45.4272 9.55343 45.086 9.45826 44.6685 9.45826C44.2696 9.45826 43.9309 9.55468 43.6528 9.74753C43.3745 9.94039 43.166 10.1991 43.0267 10.5233C42.8877 10.8474 42.818 11.2051 42.818 11.5961C42.818 12.0083 42.8837 12.3769 43.015 12.7026C43.1462 13.0281 43.3469 13.2852 43.6174 13.474C43.8877 13.6632 44.2224 13.7578 44.6213 13.7578C45.0176 13.7578 45.3535 13.6652 45.6293 13.4801H45.6291ZM43.078 14.179C42.6606 13.9401 42.3417 13.6047 42.1211 13.1731C41.9007 12.7413 41.7903 12.2392 41.7903 11.6671C41.7903 11.066 41.9079 10.5403 42.1427 10.0901C42.3776 9.63998 42.7161 9.29206 43.1584 9.04684C43.6007 8.80131 44.1227 8.67838 44.7235 8.67838C45.2986 8.67838 45.7933 8.79739 46.208 9.03492C46.6227 9.27246 46.9391 9.60642 47.1569 10.0368C47.3748 10.4675 47.4838 10.9661 47.4838 11.5332C47.4838 12.1447 47.3649 12.6762 47.1274 13.1278C46.8899 13.5792 46.5512 13.9271 46.1114 14.1711C45.6718 14.4152 45.1553 14.5373 44.5623 14.5373C43.99 14.5373 43.4954 14.4178 43.078 14.179V14.179ZM49.4799 9.58024H47.7121L47.7986 8.7574H52.2358L52.1453 9.58024H50.4642V14.4584H49.4799V9.58024ZM57.5354 14.4584H56.4251L54.7281 11.9465H54.0549V14.4584H53.0705V8.7574H54.0549V11.1118H54.5707L55.752 9.40307C55.9251 9.14844 56.0989 8.96406 56.2736 8.84991C56.4481 8.73561 56.6679 8.67854 56.9331 8.67854C57.1535 8.67854 57.3504 8.71539 57.5237 8.78876L57.3189 9.55656C57.2114 9.51203 57.1088 9.48977 57.0118 9.48977C56.8962 9.48977 56.7973 9.51862 56.7145 9.57632C56.6319 9.63402 56.5458 9.72715 56.4566 9.85588L55.4133 11.352L57.5354 14.4584ZM60.7561 11.3027C60.966 11.1125 61.0711 10.8441 61.0711 10.4976C61.0711 10.1459 60.9641 9.89257 60.7501 9.73781C60.5362 9.5829 60.2219 9.50545 59.8072 9.50545H59.2717V11.5291C59.5185 11.5685 59.7075 11.5882 59.8387 11.5882C60.2402 11.5882 60.5461 11.4931 60.7561 11.3029V11.3027ZM58.2874 8.7574H59.823C60.5447 8.7574 61.0974 8.90432 61.4806 9.1983C61.8638 9.49228 62.0554 9.9175 62.0554 10.4739C62.0554 10.852 61.9695 11.182 61.7975 11.4642C61.6256 11.7464 61.386 11.9628 61.0791 12.1138C60.7719 12.2648 60.4188 12.3402 60.0198 12.3402C59.802 12.3402 59.5525 12.314 59.2717 12.2615V14.4584H58.2874V8.7574ZM66.5005 13.4801C66.7762 13.2951 66.9822 13.0404 67.1186 12.7162C67.2552 12.3921 67.3235 12.0213 67.3235 11.6041C67.3235 11.1945 67.263 10.8295 67.1423 10.5095C67.0215 10.1892 66.8287 9.93396 66.5637 9.74361C66.2984 9.55343 65.9573 9.45826 65.5399 9.45826C65.1409 9.45826 64.8022 9.55468 64.524 9.74753C64.2457 9.94039 64.0372 10.1991 63.898 10.5233C63.7589 10.8474 63.6894 11.2051 63.6894 11.5961C63.6894 12.0083 63.755 12.3769 63.8862 12.7026C64.0175 13.0281 64.2181 13.2852 64.4886 13.474C64.7589 13.6632 65.0938 13.7578 65.4925 13.7578C65.8889 13.7578 66.2249 13.6652 66.5007 13.4801H66.5005ZM63.9492 14.179C63.5319 13.9401 63.213 13.6047 62.9924 13.1731C62.7719 12.7413 62.6617 12.2392 62.6617 11.6671C62.6617 11.066 62.7793 10.5403 63.0142 10.0901C63.249 9.63998 63.5875 9.29206 64.0298 9.04684C64.4721 8.80131 64.9941 8.67838 65.5949 8.67838C66.1699 8.67838 66.6645 8.79739 67.0792 9.03492C67.494 9.27246 67.8104 9.60642 68.0283 10.0368C68.2459 10.4675 68.355 10.9661 68.355 11.5332C68.355 12.1447 68.2362 12.6762 67.9987 13.1278C67.7611 13.5792 67.4225 13.9271 66.9828 14.1711C66.5432 14.4152 66.0267 14.5373 65.4337 14.5373C64.8615 14.5373 64.3665 14.4178 63.9492 14.179V14.179ZM71.1465 8.26132C70.9393 8.1511 70.7811 8.00936 70.6722 7.83611C70.5645 7.66649 70.4939 7.47591 70.4653 7.277H71.174C71.2502 7.69688 71.497 7.90698 71.9143 7.90698C72.3317 7.90698 72.5797 7.69688 72.6586 7.277H73.3711C73.3424 7.47586 73.272 7.6664 73.1644 7.83611C73.0555 8.00936 72.8966 8.1511 72.6878 8.26132C72.4792 8.37155 72.2213 8.42674 71.9143 8.42674C71.6098 8.42674 71.354 8.37155 71.1465 8.26132ZM73.3671 14.4584V11.3245C73.3671 10.9307 73.3816 10.4793 73.4104 9.96986L70.5482 14.4584H69.4535V8.7574H70.367V12.0135C70.367 12.3678 70.3552 12.7551 70.3315 13.175L73.1506 8.7574H74.2806V14.4583L73.3671 14.4584ZM76.883 9.58024H75.1152L75.2019 8.7574H79.6391L79.5486 9.58024H77.8676V14.4584H76.8832L76.883 9.58024ZM80.4738 8.7574H83.8323L83.7379 9.56848H81.4581V11.1394H83.6077V11.8993H81.4581V13.6395H83.86L83.7772 14.4584H80.4737L80.4738 8.7574ZM90.0985 13.484C90.2992 13.32 90.3996 13.0883 90.3996 12.7891C90.3996 12.4714 90.2889 12.23 90.067 12.0647C89.8453 11.8993 89.5258 11.8165 89.1084 11.8165H88.4467V13.73H89.1871C89.5938 13.73 89.8978 13.648 90.0985 13.484V13.484ZM88.4469 11.0882H89.061C89.2657 11.0882 89.4463 11.0475 89.6024 10.9661C89.7586 10.8847 89.8787 10.7751 89.9627 10.6373C90.0466 10.4995 90.0888 10.348 90.0888 10.1826C90.0888 9.94901 90.004 9.7745 89.8346 9.65895C89.6653 9.54339 89.4207 9.48569 89.1004 9.48569H88.4469V11.0882ZM90.7246 11.6414C90.924 11.762 91.0894 11.9314 91.205 12.1337C91.3218 12.3369 91.3801 12.5751 91.3801 12.8481C91.3801 13.1657 91.3006 13.4459 91.1418 13.6888C90.9831 13.9315 90.7508 14.1206 90.445 14.2557C90.1393 14.3909 89.7724 14.4584 89.3444 14.4584H87.4862V8.75756H89.2657C89.8693 8.75756 90.3223 8.87421 90.6242 9.10767C90.9259 9.34129 91.0769 9.66161 91.0769 10.0685C91.0769 10.4072 90.9805 10.6898 90.7876 10.9169C90.5946 11.1439 90.342 11.3034 90.0297 11.3952C90.2895 11.4346 90.5211 11.5168 90.7246 11.6414" fill="white"/>
</svg>
