<svg width="120" height="40" viewBox="0 0 120 40" fill="none" xmlns="http://www.w3.org/2000/svg">
<g clip-path="url(#clip0_84_2)">
<path d="M110.135 0H9.53502C9.16802 0 8.80502 0 8.44002 0.002C8.13402 0.004 7.83002 0.01 7.52102 0.015C6.85002 0.023 6.18002 0.082 5.51702 0.19C4.85575 0.302207 4.2152 0.513588 3.61702 0.817C2.71709 1.27724 1.93817 1.94292 1.34332 2.76014C0.748475 3.57737 0.354408 4.52317 0.193023 5.521C0.0817514 6.18271 0.0219057 6.85205 0.0140234 7.523C0.00402344 7.83 0.00402344 8.138 -0.000976562 8.444V31.56C0.00402344 31.87 0.00502344 32.17 0.0140234 32.481C0.0220234 33.152 0.0820234 33.821 0.194023 34.483C0.304023 35.146 0.514023 35.789 0.818023 36.388C1.12115 36.9862 1.51932 37.5313 1.99702 38.002C2.46986 38.479 3.01613 38.877 3.61502 39.181C4.21355 39.4851 4.85437 39.6974 5.51602 39.811C6.17902 39.921 6.84902 39.979 7.52002 39.988C7.83002 39.995 8.13302 39.999 8.43902 39.999C8.80502 40.001 9.16702 40.001 9.53402 40.001H110.134C110.493 40.001 110.858 40.001 111.218 39.999C111.522 39.999 111.835 39.995 112.14 39.989C112.81 39.979 113.478 39.921 114.14 39.811C114.804 39.6966 115.447 39.4843 116.048 39.181C116.647 38.8762 117.193 38.4775 117.666 38C118.142 37.5272 118.541 36.9826 118.848 36.386C119.15 35.786 119.358 35.144 119.467 34.481C119.578 33.82 119.64 33.151 119.652 32.479C119.656 32.169 119.656 31.869 119.656 31.558C119.664 31.194 119.664 30.833 119.664 30.464V9.536C119.664 9.17 119.664 8.806 119.656 8.444C119.656 8.138 119.656 7.83 119.652 7.524C119.64 6.85268 119.578 6.18317 119.467 5.521C119.358 4.85907 119.149 4.21747 118.848 3.618C118.231 2.41508 117.252 1.43588 116.049 0.818C115.448 0.5153 114.805 0.303975 114.141 0.191C113.48 0.081 112.811 0.022 112.141 0.015C111.836 0.01 111.523 0.004 111.219 0.002C110.859 0 110.494 0 110.135 0V0Z" fill="#A6A6A6"/>
<path d="M8.44505 39.125C8.14005 39.125 7.84305 39.121 7.54105 39.115C6.91452 39.1066 6.28948 39.0517 5.67105 38.951C5.09489 38.8516 4.53675 38.6669 4.01505 38.403C3.49793 38.1414 3.02625 37.7984 2.61805 37.387C2.20413 36.9801 1.85958 36.5082 1.59805 35.99C1.33311 35.4687 1.14965 34.9099 1.05405 34.333C0.951337 33.7131 0.895844 33.0863 0.888047 32.458C0.881047 32.248 0.873047 31.545 0.873047 31.545V8.445C0.873047 8.445 0.882047 7.753 0.888047 7.55C0.8955 6.92272 0.950659 6.29691 1.05305 5.678C1.14866 5.09952 1.33211 4.53905 1.59705 4.016C1.85705 3.498 2.20005 3.026 2.61205 2.618C3.4399 1.78618 4.50953 1.23736 5.66805 1.05C6.28805 0.95 6.91505 0.895 7.54305 0.887L8.44505 0.875H111.214L112.127 0.888C112.75 0.895168 113.371 0.949321 113.985 1.05C114.566 1.14865 115.129 1.33334 115.656 1.598C116.694 2.1326 117.539 2.97888 118.071 4.018C118.332 4.538 118.512 5.094 118.607 5.667C118.71 6.291 118.768 6.922 118.78 7.554C118.783 7.837 118.783 8.142 118.783 8.444C118.791 8.819 118.791 9.176 118.791 9.536V30.465C118.791 30.828 118.791 31.183 118.783 31.54C118.783 31.865 118.783 32.163 118.779 32.47C118.768 33.0911 118.711 33.7104 118.608 34.323C118.515 34.9041 118.333 35.4675 118.068 35.993C117.805 36.5056 117.462 36.9733 117.053 37.379C116.644 37.7926 116.172 38.1377 115.653 38.401C115.128 38.6672 114.566 38.8526 113.985 38.951C113.367 39.052 112.742 39.107 112.116 39.114C111.823 39.121 111.517 39.125 111.219 39.125L110.135 39.127L8.44505 39.125V39.125Z" fill="black"/>
<path d="M24.769 20.3C24.7797 19.4655 25.0013 18.6473 25.4132 17.9216C25.8252 17.1958 26.414 16.586 27.125 16.149C26.6734 15.5039 26.0777 14.973 25.3851 14.5984C24.6924 14.2237 23.922 14.0158 23.135 13.991C21.455 13.815 19.827 14.996 18.971 14.996C18.099 14.996 16.781 14.008 15.363 14.038C14.4454 14.0675 13.551 14.3342 12.7672 14.8121C11.9833 15.29 11.3365 15.9628 10.89 16.765C8.95597 20.114 10.398 25.035 12.251 27.742C13.178 29.067 14.261 30.547 15.679 30.495C17.066 30.437 17.584 29.61 19.259 29.61C20.917 29.61 21.403 30.495 22.849 30.462C24.338 30.437 25.275 29.13 26.169 27.792C26.8354 26.8479 27.3484 25.8043 27.689 24.7C26.824 24.3343 26.0858 23.7221 25.5665 22.9396C25.0473 22.1571 24.7699 21.2391 24.769 20.3ZM22.037 12.21C22.8485 11.236 23.2484 9.98408 23.152 8.71999C21.9119 8.85027 20.7665 9.44297 19.944 10.38C19.5419 10.8375 19.234 11.3697 19.0377 11.9462C18.8414 12.5227 18.7606 13.1322 18.8 13.74C19.4201 13.7465 20.0337 13.6122 20.5944 13.3472C21.1551 13.0822 21.6484 12.6933 22.037 12.21ZM42.302 27.14H37.57L36.433 30.496H34.428L38.912 18.078H40.995L45.478 30.496H43.439L42.303 27.14H42.302ZM38.059 25.59H41.811L39.961 20.144H39.91L38.06 25.591L38.059 25.59ZM55.16 25.97C55.16 28.783 53.654 30.59 51.381 30.59C50.8055 30.62 50.2333 30.4875 49.7296 30.2075C49.226 29.9276 48.8113 29.5115 48.533 29.007H48.49V33.491H46.63V21.442H48.43V22.948H48.463C48.754 22.4456 49.1758 22.0316 49.6835 21.7498C50.1912 21.4681 50.7657 21.3292 51.346 21.348C53.644 21.348 55.159 23.164 55.159 25.97H55.16ZM53.25 25.97C53.25 24.137 52.302 22.932 50.857 22.932C49.437 22.932 48.482 24.162 48.482 25.97C48.482 27.794 49.437 29.016 50.857 29.016C52.302 29.016 53.249 27.819 53.249 25.97H53.25ZM65.124 25.97C65.124 28.783 63.619 30.59 61.346 30.59C60.7705 30.6201 60.1982 30.4876 59.6945 30.2077C59.1909 29.9277 58.7762 29.5116 58.498 29.007H58.455V33.491H56.596V21.442H58.395V22.948H58.429C58.7199 22.4455 59.1416 22.0313 59.6493 21.7495C60.157 21.4678 60.7316 21.329 61.312 21.348C63.61 21.348 65.125 23.164 65.125 25.97H65.124ZM63.214 25.97C63.214 24.137 62.267 22.932 60.822 22.932C59.402 22.932 58.447 24.162 58.447 25.97C58.447 27.794 59.402 29.016 60.822 29.016C62.267 29.016 63.214 27.819 63.214 25.97ZM71.71 27.036C71.848 28.268 73.045 29.076 74.68 29.076C76.246 29.076 77.373 28.268 77.373 27.157C77.373 26.193 76.693 25.617 75.083 25.221L73.474 24.833C71.194 24.283 70.135 23.216 70.135 21.485C70.135 19.343 72.002 17.871 74.654 17.871C77.278 17.871 79.077 19.343 79.137 21.485H77.261C77.149 20.246 76.125 19.498 74.627 19.498C73.13 19.498 72.106 20.255 72.106 21.356C72.106 22.234 72.76 22.751 74.361 23.146L75.729 23.482C78.277 24.085 79.335 25.108 79.335 26.925C79.335 29.248 77.485 30.703 74.542 30.703C71.788 30.703 69.928 29.283 69.808 27.036H71.71V27.036ZM83.346 19.3V21.442H85.068V22.914H83.346V27.905C83.346 28.681 83.691 29.042 84.448 29.042C84.652 29.038 84.856 29.024 85.059 28.999V30.462C84.719 30.526 84.373 30.554 84.027 30.548C82.194 30.548 81.479 29.859 81.479 28.104V22.914H80.163V21.442H81.479V19.3H83.346V19.3ZM86.065 25.97C86.065 23.121 87.743 21.331 90.359 21.331C92.984 21.331 94.654 23.121 94.654 25.97C94.654 28.826 92.993 30.608 90.359 30.608C87.726 30.608 86.065 28.826 86.065 25.97ZM92.76 25.97C92.76 24.016 91.865 22.862 90.359 22.862C88.853 22.862 87.959 24.024 87.959 25.97C87.959 27.932 88.853 29.076 90.359 29.076C91.865 29.076 92.76 27.932 92.76 25.97ZM96.186 21.442H97.958V22.983H98.001C98.1211 22.5019 98.4032 22.0767 98.7998 21.779C99.1964 21.4813 99.6834 21.3291 100.179 21.348C100.393 21.347 100.607 21.37 100.816 21.417V23.155C100.546 23.0724 100.264 23.0345 99.981 23.043C99.7109 23.0319 99.4417 23.0793 99.1917 23.1822C98.9418 23.285 98.717 23.4407 98.533 23.6386C98.3489 23.8365 98.2099 24.072 98.1255 24.3287C98.0411 24.5855 98.0133 24.8575 98.044 25.126V30.496H96.186V21.442V21.442ZM109.384 27.837C109.134 29.48 107.534 30.608 105.486 30.608C102.852 30.608 101.217 28.844 101.217 26.013C101.217 23.173 102.861 21.331 105.408 21.331C107.913 21.331 109.488 23.051 109.488 25.797V26.434H103.093V26.546C103.063 26.8792 103.105 27.215 103.215 27.5309C103.325 27.8468 103.501 28.1356 103.732 28.378C103.963 28.6202 104.242 28.8107 104.552 28.9369C104.862 29.063 105.195 29.1221 105.529 29.11C105.968 29.1518 106.409 29.0504 106.786 28.8209C107.163 28.5915 107.455 28.2464 107.62 27.837H109.384V27.837ZM103.102 25.135H107.628C107.645 24.8354 107.6 24.5354 107.496 24.2542C107.391 23.9729 107.229 23.7164 107.02 23.501C106.812 23.2848 106.561 23.1141 106.284 22.9998C106.006 22.8855 105.708 22.8301 105.408 22.837C105.105 22.8353 104.805 22.8935 104.525 23.0083C104.245 23.123 103.991 23.2921 103.776 23.5057C103.562 23.7194 103.392 23.9733 103.276 24.253C103.161 24.5326 103.101 24.8324 103.102 25.135V25.135ZM36.738 11.253H37.536C37.6732 11.2703 37.8126 11.2589 37.9453 11.2196C38.0779 11.1803 38.201 11.1139 38.3067 11.0246C38.4124 10.9353 38.4985 10.8251 38.5595 10.7009C38.6204 10.5767 38.655 10.4412 38.661 10.303C38.661 9.752 38.247 9.39599 37.545 9.39599C37.4042 9.37627 37.2609 9.38497 37.1236 9.42158C36.9863 9.45819 36.8577 9.52196 36.7454 9.60914C36.6332 9.69631 36.5396 9.80511 36.4701 9.92909C36.4006 10.0531 36.3567 10.1897 36.341 10.331H35.465C35.4803 10.0748 35.5481 9.82452 35.6642 9.59566C35.7803 9.3668 35.9422 9.16425 36.1399 9.00061C36.3376 8.83696 36.5668 8.71571 36.8134 8.64438C37.0599 8.57306 37.3184 8.55319 37.573 8.586C38.748 8.586 39.575 9.24399 39.575 10.19C39.5778 10.5072 39.4717 10.8158 39.2744 11.0642C39.0771 11.3127 38.8006 11.4859 38.491 11.555V11.625C38.8579 11.6414 39.2035 11.8023 39.4522 12.0727C39.7008 12.3431 39.8323 12.7009 39.818 13.068C39.7906 13.3317 39.7109 13.5874 39.5835 13.82C39.4562 14.0526 39.2838 14.2575 39.0763 14.4226C38.8689 14.5878 38.6306 14.71 38.3754 14.782C38.1202 14.854 37.8532 14.8744 37.59 14.842C37.3262 14.8778 37.058 14.8603 36.8012 14.7903C36.5444 14.7203 36.3043 14.5994 36.0952 14.4347C35.8861 14.27 35.7123 14.0649 35.5841 13.8317C35.4559 13.5984 35.3759 13.3418 35.349 13.077H36.239C36.292 13.647 36.816 14.016 37.589 14.016C38.363 14.016 38.869 13.602 38.869 13.019C38.869 12.428 38.393 12.063 37.562 12.063H36.738V11.253V11.253ZM40.83 13.424C40.83 12.614 41.434 12.147 42.504 12.08L43.724 12.01V11.621C43.724 11.145 43.41 10.877 42.802 10.877C42.306 10.877 41.962 11.059 41.863 11.377H41.003C41.093 10.604 41.823 10.107 42.843 10.107C43.973 10.107 44.609 10.67 44.609 11.621V14.698H43.753V14.065H43.683C43.5402 14.2921 43.3397 14.4772 43.102 14.6014C42.8643 14.7256 42.5979 14.7845 42.33 14.772C42.141 14.7916 41.95 14.7713 41.7693 14.7125C41.5886 14.6538 41.4222 14.5578 41.2809 14.4308C41.1396 14.3038 41.0264 14.1486 40.9488 13.9752C40.8711 13.8018 40.8306 13.614 40.83 13.424V13.424ZM43.724 13.04V12.663L42.624 12.733C42.004 12.775 41.723 12.986 41.723 13.383C41.723 13.788 42.074 14.023 42.558 14.023C42.6995 14.0376 42.8426 14.0234 42.9786 13.9815C43.1146 13.9396 43.2408 13.8707 43.3496 13.779C43.4584 13.6872 43.5477 13.5745 43.612 13.4476C43.6763 13.3206 43.7144 13.182 43.724 13.04V13.04ZM46.968 10.943V14.698H46.079V10.195H49.044V10.943H46.968ZM54.43 12.444C54.43 13.875 53.706 14.772 52.57 14.772C52.2909 14.7912 52.0122 14.7303 51.7666 14.5963C51.521 14.4624 51.3189 14.261 51.184 14.016H51.114V16.195H50.224V10.195H51.08V10.939H51.147C51.2842 10.6854 51.489 10.4747 51.7385 10.3301C51.988 10.1856 52.2727 10.1129 52.561 10.12C53.706 10.12 54.43 11.013 54.43 12.444V12.444ZM53.516 12.444C53.516 11.494 53.066 10.918 52.313 10.918C51.565 10.918 51.097 11.505 51.097 12.448C51.097 13.387 51.565 13.974 52.309 13.974C53.065 13.974 53.516 13.399 53.516 12.444ZM55.613 16.31V15.545C55.709 15.558 55.806 15.563 55.903 15.562C56.0924 15.5763 56.2803 15.52 56.4308 15.4041C56.5812 15.2882 56.6835 15.1208 56.718 14.934L56.784 14.714L55.154 10.194H56.122L57.251 13.771H57.321L58.446 10.195H59.389L57.71 14.884C57.325 15.979 56.9 16.331 55.981 16.331C55.8581 16.3301 55.7353 16.3234 55.613 16.311V16.31ZM60.081 13.42H60.966C61.053 13.817 61.425 14.024 61.946 14.024C62.537 14.024 62.9 13.764 62.9 13.358C62.9 12.924 62.574 12.717 61.945 12.717H61.272V12.027H61.934C62.471 12.027 62.744 11.82 62.744 11.443C62.744 11.113 62.48 10.86 61.934 10.86C61.437 10.86 61.074 11.071 61.016 11.427H60.159C60.2227 11.0182 60.4445 10.6508 60.7765 10.4039C61.1085 10.157 61.5241 10.0504 61.934 10.107C63.004 10.107 63.616 10.592 63.616 11.353C63.6208 11.5646 63.553 11.7714 63.4238 11.939C63.2946 12.1066 63.1118 12.2249 62.906 12.274V12.344C63.1514 12.3758 63.3766 12.4967 63.5388 12.6836C63.7011 12.8705 63.789 13.1105 63.786 13.358C63.786 14.214 63.058 14.78 61.946 14.78C60.962 14.78 60.163 14.33 60.081 13.42V13.42ZM65.066 14.698V10.195H65.946V13.292H66.017L68.092 10.195H68.973V14.698H68.093V11.584H68.026L65.946 14.698H65.066V14.698ZM73.826 10.943H72.408V14.698H71.518V10.943H70.1V10.195H73.826V10.943ZM78.613 13.482C78.4919 13.8935 78.2301 14.2495 77.8734 14.4876C77.5166 14.7258 77.0875 14.831 76.661 14.785C76.3642 14.7929 76.0693 14.7361 75.7967 14.6185C75.5241 14.501 75.2804 14.3255 75.0825 14.1042C74.8846 13.883 74.7372 13.6213 74.6506 13.3374C74.564 13.0534 74.5402 12.754 74.581 12.46C74.5416 12.1652 74.566 11.8653 74.6525 11.5807C74.739 11.2962 74.8857 11.0335 75.0825 10.8105C75.2793 10.5875 75.5218 10.4093 75.7934 10.2881C76.065 10.167 76.3595 10.1055 76.657 10.108C77.91 10.108 78.667 10.964 78.667 12.378V12.688H75.487V12.738C75.4727 12.9034 75.4933 13.0699 75.5473 13.2269C75.6013 13.3838 75.6877 13.5277 75.8007 13.6493C75.9138 13.7708 76.0511 13.8673 76.2037 13.9325C76.3564 13.9978 76.521 14.0303 76.687 14.028C76.8994 14.0533 77.1145 14.0149 77.305 13.9177C77.4955 13.8205 77.6528 13.6688 77.757 13.482H78.613V13.482ZM75.487 12.031H77.76C77.7713 11.8799 77.7509 11.7282 77.7001 11.5855C77.6493 11.4427 77.5692 11.3122 77.4649 11.2023C77.3607 11.0924 77.2346 11.0055 77.0947 10.9473C76.9549 10.889 76.8044 10.8606 76.653 10.864C76.4992 10.8618 76.3465 10.8906 76.204 10.9485C76.0615 11.0063 75.932 11.0922 75.8233 11.2011C75.7146 11.3099 75.6288 11.4394 75.571 11.5819C75.5133 11.7245 75.4847 11.8772 75.487 12.031ZM82.38 10.195H84.41C85.292 10.195 85.808 10.641 85.808 11.34C85.8094 11.5616 85.7347 11.777 85.5964 11.9501C85.458 12.1232 85.2644 12.2436 85.048 12.291V12.361C85.3107 12.3779 85.557 12.495 85.736 12.6881C85.915 12.8812 86.0131 13.1357 86.01 13.399C86.01 14.185 85.42 14.698 84.431 14.698H82.381V10.195H82.38ZM83.261 10.877V12.043H84.142C84.679 12.043 84.936 11.836 84.936 11.456C84.936 11.105 84.712 10.876 84.241 10.876L83.261 10.877ZM83.261 12.697V14.016H84.315C84.84 14.016 85.122 13.784 85.122 13.358C85.122 12.908 84.803 12.696 84.204 12.696H83.261V12.697Z" fill="white"/>
</g>
<defs>
<clipPath id="clip0_84_2">
<rect width="120" height="40" fill="white"/>
</clipPath>
</defs>
</svg>
