<svg width="32" height="29" viewBox="0 0 32 29" fill="none" xmlns="http://www.w3.org/2000/svg">
<rect width="32" height="28.9387" rx="4" fill="#C4C4C4" fill-opacity="0.2"/>
<path d="M14.5983 17.8363C13.1781 17.7037 11.8977 17.3907 10.8014 16.6233C10.6654 16.5278 10.5249 16.4358 10.4008 16.3291C9.92096 15.9167 9.87261 15.4443 10.2523 14.9575C10.5771 14.5409 11.1224 14.4295 11.6891 14.6687C11.7989 14.715 11.9034 14.7729 12.0036 14.8351C14.0467 16.0915 16.8534 16.1262 18.9041 14.8916C19.1073 14.7521 19.3245 14.6385 19.5762 14.5804C20.0657 14.4679 20.5221 14.6288 20.7847 15.0121C21.0848 15.4498 21.081 15.877 20.7113 16.2168C20.1441 16.7378 19.4621 17.1147 18.7042 17.3778C17.9876 17.6264 17.2027 17.7516 16.4259 17.8347C16.5431 17.9489 16.5984 18.0051 16.6717 18.071C17.7265 19.0195 18.786 19.9641 19.8373 20.9156C20.1955 21.2398 20.2704 21.6418 20.0731 22.0188C19.8575 22.4309 19.3748 22.7021 18.9015 22.6731C18.6016 22.6545 18.3677 22.5209 18.1599 22.3336C17.3639 21.6167 16.5529 20.913 15.773 20.1825C15.546 19.9701 15.4369 20.0103 15.2366 20.1947C14.4358 20.9326 13.6219 21.6591 12.8032 22.3815C12.4356 22.7059 11.9982 22.7642 11.5719 22.579C11.1187 22.3824 10.8304 21.9684 10.8526 21.5523C10.868 21.2709 11.0226 21.0559 11.2385 20.863C12.2824 19.9301 13.3234 18.9948 14.3648 18.0603C14.4337 17.9982 14.4979 17.9323 14.5983 17.8363Z" fill="white" fill-opacity="0.7"/>
<path d="M15.467 14.4691C13.0047 14.4615 10.9857 12.6179 11.0001 10.3906C11.0142 8.13862 13.0346 6.32386 15.5211 6.33009C18.0126 6.33616 20.0124 8.17702 19.9999 10.4524C19.9873 12.6752 17.9542 14.4768 15.467 14.4691ZM17.7048 10.396C17.7005 9.29002 16.7253 8.40959 15.5032 8.40858C14.2708 8.4074 13.2869 9.30383 13.2964 10.4199C13.3055 11.5216 14.2891 12.3958 15.5146 12.3917C16.7363 12.3879 17.7089 11.5017 17.7048 10.396Z" fill="white" fill-opacity="0.7"/>
</svg>
