<svg width="15" height="22" viewBox="0 0 15 22" fill="none" xmlns="http://www.w3.org/2000/svg">
<path fill-rule="evenodd" clip-rule="evenodd" d="M6 0C6.26522 0 6.51957 0.105357 6.70711 0.292893C6.89464 0.48043 7 0.734784 7 1V3C9.12173 3 11.1566 3.84285 12.6569 5.34315C14.1571 6.84344 15 8.87827 15 11C15 13.1217 14.1571 15.1566 12.6569 16.6569C11.1566 18.1571 9.12173 19 7 19V21C7 21.2652 6.89464 21.5196 6.70711 21.7071C6.51957 21.8946 6.26522 22 6 22C5.73478 22 5.48043 21.8946 5.29289 21.7071C5.10536 21.5196 5 21.2652 5 21V19H1.6C1.04 19 0.76 19 0.546 18.891C0.357846 18.7951 0.204872 18.6422 0.109 18.454C2.08616e-07 18.24 0 17.96 0 17.4V4.6C0 4.04 2.08616e-07 3.76 0.109 3.546C0.204872 3.35785 0.357846 3.20487 0.546 3.109C0.76 3 1.04 3 1.6 3H5V1C5 0.734784 5.10536 0.48043 5.29289 0.292893C5.48043 0.105357 5.73478 0 6 0ZM7 17C8.5913 17 10.1174 16.3679 11.2426 15.2426C12.3679 14.1174 13 12.5913 13 11C13 9.4087 12.3679 7.88258 11.2426 6.75736C10.1174 5.63214 8.5913 5 7 5H2V17H7Z" fill="black"/>
</svg>
