<svg width="135" height="40" viewBox="0 0 135 40" fill="none" xmlns="http://www.w3.org/2000/svg">
<g clip-path="url(#clip0_84_7)">
<path d="M130 0H5C3.67392 0 2.40215 0.526784 1.46447 1.46447C0.526784 2.40215 0 3.67392 0 5L0 35C0 36.3261 0.526784 37.5979 1.46447 38.5355C2.40215 39.4732 3.67392 40 5 40H130C131.326 40 132.598 39.4732 133.536 38.5355C134.473 37.5979 135 36.3261 135 35V5C135 3.67392 134.473 2.40215 133.536 1.46447C132.598 0.526784 131.326 0 130 0V0Z" fill="black"/>
<path d="M130 0.8C131.114 0.8 132.182 1.2425 132.97 2.03015C133.758 2.8178 134.2 3.88609 134.2 5V35C134.2 35.5516 134.092 36.0979 133.881 36.6076C133.67 37.1173 133.36 37.5804 132.97 37.9704C132.58 38.3605 132.117 38.6699 131.608 38.8808C131.098 39.0918 130.552 39.2003 130 39.2H5C3.88609 39.2 2.8178 38.7575 2.03015 37.9698C1.2425 37.1822 0.8 36.1139 0.8 35V5C0.8 3.88609 1.2425 2.8178 2.03015 2.03015C2.8178 1.2425 3.88609 0.8 5 0.8H130ZM130 0H5C3.67392 0 2.40215 0.526784 1.46447 1.46447C0.526784 2.40215 0 3.67392 0 5L0 35C0 36.3261 0.526784 37.5979 1.46447 38.5355C2.40215 39.4732 3.67392 40 5 40H130C131.326 39.9995 132.597 39.4725 133.535 38.535C134.473 37.5974 134.999 36.3259 135 35V5C134.999 3.67408 134.473 2.40262 133.535 1.46505C132.597 0.527485 131.326 0.00053005 130 0V0Z" fill="#A6A6A6"/>
<path d="M68.14 21.75C67.3003 21.754 66.4806 22.0066 65.7843 22.476C65.0881 22.9454 64.5464 23.6105 64.2278 24.3874C63.9092 25.1643 63.8279 26.0182 63.9941 26.8413C64.1604 27.6644 64.5667 28.4198 65.1619 29.0122C65.757 29.6046 66.5144 30.0074 67.3382 30.1697C68.1621 30.3321 69.0156 30.2468 69.791 29.9245C70.5664 29.6023 71.229 29.0576 71.6951 28.3591C72.1613 27.6606 72.41 26.8397 72.41 26C72.4179 25.438 72.3127 24.8802 72.1006 24.3597C71.8886 23.8392 71.574 23.3666 71.1757 22.9701C70.7773 22.5736 70.3033 22.2613 69.7818 22.0517C69.2603 21.8421 68.702 21.7395 68.14 21.75ZM68.14 28.58C67.6236 28.6161 67.1083 28.496 66.661 28.2354C66.2137 27.9747 65.8552 27.5856 65.632 27.1184C65.4089 26.6513 65.3314 26.1279 65.4097 25.6162C65.488 25.1044 65.7184 24.6281 66.071 24.249C66.4236 23.87 66.8821 23.6058 67.3868 23.4908C67.8915 23.3758 68.4192 23.4152 68.9012 23.6041C69.3832 23.7929 69.7973 24.1224 70.0895 24.5497C70.3818 24.977 70.5388 25.4823 70.54 26C70.5561 26.328 70.5064 26.6559 70.3938 26.9644C70.2811 27.2729 70.1078 27.5557 69.8842 27.7962C69.6605 28.0366 69.3909 28.2299 69.0914 28.3645C68.7918 28.4991 68.4683 28.5724 68.14 28.58V28.58ZM58.83 21.75C57.9899 21.752 57.1692 22.0029 56.4716 22.4711C55.774 22.9393 55.2308 23.6038 54.9107 24.3805C54.5905 25.1573 54.5078 26.0115 54.6729 26.8352C54.838 27.659 55.2436 28.4154 55.8384 29.0087C56.4331 29.6021 57.1904 30.0059 58.0146 30.1691C58.8387 30.3322 59.6927 30.2475 60.4687 29.9255C61.2447 29.6036 61.9079 29.0588 62.3745 28.3601C62.841 27.6614 63.09 26.8401 63.09 26C63.0979 25.438 62.9927 24.8802 62.7806 24.3597C62.5686 23.8392 62.254 23.3666 61.8557 22.9701C61.4573 22.5736 60.9833 22.2613 60.4618 22.0517C59.9403 21.8421 59.382 21.7395 58.82 21.75H58.83V21.75ZM58.83 28.58C58.3134 28.6182 57.7972 28.4999 57.3487 28.2406C56.9001 27.9812 56.5401 27.5929 56.3154 27.1261C56.0907 26.6593 56.0117 26.1356 56.0887 25.6233C56.1658 25.111 56.3953 24.6338 56.7473 24.2537C57.0994 23.8736 57.5578 23.6084 58.0627 23.4924C58.5676 23.3765 59.0958 23.4153 59.5784 23.6037C60.061 23.7921 60.4757 24.1215 60.7685 24.5489C61.0613 24.9763 61.2186 25.4819 61.22 26C61.2361 26.328 61.1864 26.6559 61.0738 26.9644C60.9611 27.2729 60.7878 27.5557 60.5642 27.7962C60.3405 28.0366 60.0709 28.2299 59.7714 28.3645C59.4718 28.4991 59.1483 28.5724 58.82 28.58H58.83ZM47.74 23.06V24.86H52.06C51.9923 25.7078 51.6399 26.5078 51.06 27.13C50.6278 27.5701 50.1082 27.915 49.5347 28.1423C48.9612 28.3696 48.3465 28.4744 47.73 28.45C47.0997 28.45 46.4755 28.3258 45.8931 28.0846C45.3108 27.8434 44.7816 27.4898 44.3359 27.0441C43.8902 26.5984 43.5366 26.0692 43.2954 25.4869C43.0542 24.9045 42.93 24.2803 42.93 23.65C42.93 23.0197 43.0542 22.3955 43.2954 21.8131C43.5366 21.2308 43.8902 20.7016 44.3359 20.2559C44.7816 19.8102 45.3108 19.4566 45.8931 19.2154C46.4755 18.9742 47.0997 18.85 47.73 18.85C48.9478 18.8301 50.1238 19.2941 51 20.14L52.27 18.87C51.6785 18.271 50.9728 17.7969 50.1946 17.4757C49.4165 17.1545 48.5818 16.9927 47.74 17C46.8533 16.9691 45.9694 17.1171 45.1411 17.4352C44.3128 17.7532 43.5571 18.2348 42.9189 18.8511C42.2807 19.4675 41.7731 20.2061 41.4264 21.0228C41.0798 21.8396 40.9011 22.7177 40.9011 23.605C40.9011 24.4923 41.0798 25.3704 41.4264 26.1872C41.7731 27.0039 42.2807 27.7425 42.9189 28.3589C43.5571 28.9752 44.3128 29.4568 45.1411 29.7748C45.9694 30.0929 46.8533 30.2409 47.74 30.21C48.596 30.2487 49.4503 30.1036 50.2455 29.7845C51.0407 29.4654 51.7583 28.9797 52.35 28.36C53.3977 27.2089 53.9571 25.6958 53.91 24.14C53.9132 23.761 53.8797 23.3826 53.81 23.01L47.74 23.06V23.06ZM93.05 24.46C92.7892 23.6927 92.3015 23.0228 91.6515 22.5389C91.0015 22.0549 90.2199 21.7798 89.41 21.75C88.8631 21.7491 88.3217 21.8603 87.8194 22.0768C87.3172 22.2933 86.8646 22.6106 86.4897 23.0089C86.1149 23.4071 85.8257 23.8781 85.6399 24.3925C85.4542 24.907 85.376 25.4541 85.41 26C85.3979 26.5589 85.4985 27.1145 85.7059 27.6337C85.9133 28.1528 86.2232 28.6249 86.6171 29.0216C87.011 29.4183 87.4808 29.7315 87.9985 29.9426C88.5161 30.1536 89.071 30.2582 89.63 30.25C90.3295 30.2538 91.019 30.084 91.6368 29.7559C92.2546 29.4278 92.7814 28.9516 93.17 28.37L91.72 27.37C91.5036 27.7308 91.1972 28.0292 90.8309 28.236C90.4645 28.4429 90.0507 28.5511 89.63 28.55C89.1969 28.5665 88.7688 28.4523 88.4014 28.2222C88.034 27.9922 87.7443 27.6569 87.57 27.26L93.26 24.91L93.05 24.46ZM87.25 25.88C87.2298 25.5707 87.2714 25.2605 87.3725 24.9674C87.4737 24.6744 87.6323 24.4045 87.839 24.1736C88.0457 23.9426 88.2965 23.7553 88.5765 23.6224C88.8566 23.4896 89.1604 23.414 89.47 23.4C89.7926 23.3787 90.1143 23.4527 90.3952 23.6127C90.6761 23.7727 90.9038 24.0117 91.05 24.3L87.25 25.88ZM82.63 30H84.5V17.5H82.63V30ZM79.57 22.7H79.5C79.2182 22.3849 78.8729 22.1329 78.4869 21.9606C78.1009 21.7883 77.6828 21.6994 77.26 21.7C76.1672 21.753 75.1367 22.2244 74.382 23.0166C73.6273 23.8087 73.2064 24.8609 73.2064 25.955C73.2064 27.0491 73.6273 28.1013 74.382 28.8934C75.1367 29.6856 76.1672 30.157 77.26 30.21C77.6838 30.2171 78.104 30.1313 78.491 29.9585C78.878 29.7857 79.2224 29.5302 79.5 29.21H79.56V29.82C79.56 31.45 78.69 32.32 77.29 32.32C76.8237 32.3091 76.3713 32.1597 75.9902 31.8908C75.6091 31.6219 75.3166 31.2456 75.15 30.81L73.52 31.49C73.8269 32.2364 74.3497 32.874 75.0214 33.3213C75.6931 33.7685 76.4831 34.0048 77.29 34C79.48 34 81.29 32.71 81.29 29.57V22H79.57V22.7V22.7ZM77.43 28.58C76.785 28.5232 76.1846 28.2267 75.7473 27.7492C75.31 27.2716 75.0674 26.6476 75.0674 26C75.0674 25.3525 75.31 24.7284 75.7473 24.2508C76.1846 23.7733 76.785 23.4769 77.43 23.42C77.7499 23.4364 78.0632 23.5167 78.3515 23.656C78.6398 23.7954 78.8973 23.9911 79.1089 24.2315C79.3204 24.4719 79.4817 24.7523 79.5832 25.056C79.6848 25.3597 79.7245 25.6807 79.7 26C79.7275 26.3207 79.6895 26.6437 79.5885 26.9493C79.4875 27.2549 79.3255 27.5369 79.1123 27.7781C78.8992 28.0193 78.6393 28.2147 78.3484 28.3526C78.0575 28.4904 77.7417 28.5678 77.42 28.58H77.43V28.58ZM101.81 17.5H97.34V30H99.21V25.26H101.82C102.352 25.2962 102.885 25.2228 103.387 25.0442C103.89 24.8656 104.35 24.5857 104.739 24.2219C105.129 23.8581 105.439 23.418 105.652 22.9292C105.864 22.4403 105.973 21.913 105.973 21.38C105.973 20.847 105.864 20.3197 105.652 19.8308C105.439 19.342 105.129 18.902 104.739 18.5381C104.35 18.1743 103.89 17.8944 103.387 17.7158C102.885 17.5372 102.352 17.4638 101.82 17.5H101.81ZM101.81 23.5H99.2V19.24H101.85C102.274 19.2409 102.688 19.3672 103.04 19.603C103.393 19.8389 103.667 20.1737 103.829 20.5653C103.991 20.9569 104.034 21.3878 103.952 21.8036C103.87 22.2195 103.666 22.6016 103.367 22.902C102.965 23.3041 102.419 23.5299 101.85 23.53L101.81 23.5V23.5ZM113.34 21.7C112.659 21.6591 111.981 21.818 111.39 22.1574C110.798 22.4967 110.318 23.0017 110.01 23.61L111.67 24.3C111.834 23.9984 112.082 23.7508 112.383 23.5874C112.685 23.4241 113.028 23.352 113.37 23.38C113.728 23.3388 114.089 23.4054 114.409 23.5713C114.728 23.7372 114.99 23.9948 115.162 24.311C115.276 24.521 115.346 24.752 115.37 24.99V25.12C114.769 24.802 114.1 24.6371 113.42 24.64C111.63 24.64 109.82 25.64 109.82 27.45C109.838 27.8358 109.934 28.2141 110.1 28.5626C110.266 28.9112 110.501 29.2231 110.789 29.48C111.078 29.7363 111.416 29.932 111.782 30.0557C112.148 30.1793 112.535 30.2284 112.92 30.2C113.391 30.2334 113.862 30.1396 114.284 29.9285C114.706 29.7174 115.064 29.3967 115.32 29H115.38V30H117.18V25.19C117.18 23 115.52 21.73 113.39 21.73L113.34 21.7V21.7ZM113.11 28.55C112.5 28.55 111.65 28.24 111.65 27.49C111.65 26.49 112.71 26.16 113.65 26.16C114.244 26.1453 114.831 26.2904 115.35 26.58C115.287 27.1211 115.03 27.6212 114.628 27.9885C114.226 28.3559 113.705 28.5659 113.16 28.58L113.11 28.55V28.55ZM123.74 22L121.6 27.42H121.54L119.32 22H117.32L120.65 29.58L118.75 33.79H120.7L125.82 22H123.74ZM106.93 30H108.8V17.5H106.93V30Z" fill="white"/>
<path d="M10.4399 7.54C10.114 7.93111 9.94945 8.4318 9.9799 8.94V31.06C9.94945 31.5682 10.114 32.0689 10.4399 32.46L10.5099 32.53L22.8999 20.15V19.86L10.5099 7.47L10.4399 7.54Z" fill="url(#paint0_linear_84_7)"/>
<path d="M26.9999 24.28L22.8999 20.15V19.86L26.9999 15.72L27.0899 15.77L31.9999 18.56C33.3999 19.35 33.3999 20.65 31.9999 21.45L27.1099 24.23L26.9999 24.28Z" fill="url(#paint1_linear_84_7)"/>
<path d="M27.1199 24.22L22.8999 20L10.4399 32.46C10.7253 32.7109 11.0893 32.8541 11.4691 32.8651C11.8489 32.876 12.2206 32.754 12.5199 32.52L27.1299 24.22" fill="url(#paint2_linear_84_7)"/>
<path d="M27.1199 15.78L12.5099 7.48C12.2106 7.24602 11.8389 7.12395 11.4591 7.13491C11.0793 7.14587 10.7153 7.28915 10.4299 7.54L22.8999 20L27.1199 15.78V15.78Z" fill="url(#paint3_linear_84_7)"/>
<path opacity="0.2" d="M26.9999 24.13L12.5099 32.38C12.2212 32.5959 11.8704 32.7125 11.5099 32.7125C11.1495 32.7125 10.7987 32.5959 10.5099 32.38L10.4399 32.45L10.5099 32.52C10.798 32.7374 11.1491 32.855 11.5099 32.855C11.8708 32.855 12.2219 32.7374 12.5099 32.52L27.1199 24.22L26.9999 24.13V24.13Z" fill="black"/>
<path opacity="0.12" d="M10.4399 32.32C10.114 31.9289 9.94945 31.4282 9.9799 30.92V31.07C9.94945 31.5782 10.114 32.0789 10.4399 32.47L10.5099 32.4L10.4399 32.32ZM31.9999 21.3L26.9999 24.13L27.0899 24.22L31.9999 21.44C32.2785 21.3091 32.5177 21.1071 32.6932 20.8543C32.8688 20.6014 32.9746 20.3068 32.9999 20C32.9437 20.2787 32.8243 20.5408 32.6509 20.7662C32.4776 20.9915 32.2549 21.1742 31.9999 21.3V21.3Z" fill="black"/>
<path opacity="0.25" d="M12.51 7.62L32 18.7C32.2549 18.8258 32.4776 19.0085 32.651 19.2338C32.8244 19.4592 32.9437 19.7213 33 20C32.9747 19.6932 32.8689 19.3986 32.6933 19.1457C32.5177 18.8929 32.2786 18.6909 32 18.56L12.51 7.48C11.11 6.69 9.96997 7.35 9.96997 8.95V9.1C9.99997 7.49 11.12 6.83 12.51 7.62V7.62Z" fill="white"/>
<path d="M42.1101 14.27H41.3701V12.27H42.0001C42.2874 11.9656 42.5043 11.6018 42.6356 11.2044C42.767 10.807 42.8095 10.3856 42.7601 9.97V7H46.7601V12.26H47.4301V14.26H46.6901V13H42.1101V14.27ZM43.5001 10C43.5468 10.8066 43.3481 11.6085 42.9301 12.3H45.9301V7.74H43.5001V10ZM53.4101 12.22C52.8255 12.8013 52.0346 13.1277 51.2101 13.1277C50.3857 13.1277 49.5947 12.8013 49.0101 12.22C48.4419 11.6185 48.1253 10.8224 48.1253 9.995C48.1253 9.16756 48.4419 8.37148 49.0101 7.77C49.2983 7.47974 49.641 7.24938 50.0186 7.09217C50.3962 6.93497 50.8011 6.85403 51.2101 6.85403C51.6191 6.85403 52.0241 6.93497 52.4016 7.09217C52.7792 7.24938 53.122 7.47974 53.4101 7.77C53.9806 8.37033 54.2987 9.16685 54.2987 9.995C54.2987 10.8232 53.9806 11.6197 53.4101 12.22V12.22ZM49.5801 11.72C50.013 12.1511 50.5991 12.3932 51.2101 12.3932C51.8211 12.3932 52.4072 12.1511 52.8401 11.72C53.2674 11.249 53.504 10.6359 53.504 10C53.504 9.36411 53.2674 8.75098 52.8401 8.28C52.4072 7.84888 51.8211 7.60683 51.2101 7.60683C50.5991 7.60683 50.013 7.84888 49.5801 8.28C49.1529 8.75098 48.9162 9.36411 48.9162 10C48.9162 10.6359 49.1529 11.249 49.5801 11.72V11.72ZM58.1801 13.13C57.7673 13.1381 57.3572 13.0625 56.9743 12.908C56.5915 12.7534 56.2439 12.523 55.9524 12.2306C55.6609 11.9382 55.4316 11.5898 55.2783 11.2065C55.1249 10.8232 55.0507 10.4128 55.0601 10C55.0506 9.5872 55.1247 9.17675 55.278 8.79335C55.4313 8.40996 55.6606 8.06155 55.9521 7.76911C56.2436 7.47668 56.5913 7.24626 56.9742 7.09174C57.3571 6.93722 57.7673 6.8618 58.1801 6.87C58.5985 6.85964 59.0139 6.94424 59.3949 7.11744C59.776 7.29064 60.1128 7.54794 60.3801 7.87L59.8401 8.39C59.6426 8.13925 59.3879 7.93941 59.0974 7.8072C58.8069 7.67498 58.4889 7.61422 58.1701 7.63C57.8632 7.62202 57.5578 7.6764 57.2725 7.78984C56.9871 7.90329 56.7278 8.07344 56.5101 8.29C56.0765 8.7638 55.8361 9.38276 55.8361 10.025C55.8361 10.6672 56.0765 11.2862 56.5101 11.76C56.7278 11.9766 56.9871 12.1467 57.2725 12.2602C57.5578 12.3736 57.8632 12.428 58.1701 12.42C58.5221 12.4167 58.8689 12.3352 59.1854 12.1812C59.5019 12.0273 59.7802 11.8048 60.0001 11.53L60.5401 12.07C60.2677 12.3999 59.9264 12.6661 59.5401 12.85C59.1133 13.0433 58.6486 13.139 58.1801 13.13V13.13ZM63.6801 13H62.9101V7.74H61.2301V7H65.3501V7.74H63.6801V13V13ZM70.6501 7L68.3801 12.06C68.2893 12.3593 68.1077 12.623 67.8605 12.8147C67.6133 13.0064 67.3126 13.1166 67.0001 13.13C66.7934 13.1273 66.5894 13.0831 66.4001 13L66.6001 12.29C66.7221 12.36 66.8601 12.399 67.0001 12.4C67.1471 12.4111 67.2939 12.3761 67.4201 12.3C67.5406 12.198 67.6335 12.0673 67.6901 11.92L67.9101 11.44L65.9101 7.01H66.8201L68.3001 10.45L69.7401 7H70.6501V7ZM71.5201 13V7H75.8601V13H75.0901V7.74H72.2901V13H71.5201V13ZM77.2301 13V7H78.0001V9.57H81.0001V7H81.7701V13H81.0001V10.29H78.0001V13H77.2301ZM88.0601 12.22C87.4755 12.8013 86.6846 13.1277 85.8601 13.1277C85.0357 13.1277 84.2447 12.8013 83.6601 12.22C83.0919 11.6185 82.7753 10.8224 82.7753 9.995C82.7753 9.16756 83.0919 8.37148 83.6601 7.77C83.9483 7.47974 84.291 7.24938 84.6686 7.09217C85.0462 6.93497 85.4511 6.85403 85.8601 6.85403C86.2691 6.85403 86.6741 6.93497 87.0516 7.09217C87.4292 7.24938 87.772 7.47974 88.0601 7.77C88.6306 8.37033 88.9487 9.16685 88.9487 9.995C88.9487 10.8232 88.6306 11.6197 88.0601 12.22V12.22ZM84.2301 11.72C84.663 12.1511 85.2491 12.3932 85.8601 12.3932C86.4711 12.3932 87.0572 12.1511 87.4901 11.72C87.9174 11.249 88.154 10.6359 88.154 10C88.154 9.36411 87.9174 8.75098 87.4901 8.28C87.0572 7.84888 86.4711 7.60683 85.8601 7.60683C85.2491 7.60683 84.663 7.84888 84.2301 8.28C83.8029 8.75098 83.5662 9.36411 83.5662 10C83.5662 10.6359 83.8029 11.249 84.2301 11.72V11.72ZM92.0901 13V7H94.2601C94.7107 6.99149 95.1473 7.15613 95.4801 7.46C95.6472 7.60502 95.7804 7.78498 95.8703 7.98716C95.9601 8.18934 96.0045 8.4088 96.0001 8.63C96.0048 8.89656 95.9281 9.15821 95.7801 9.38C95.6333 9.59543 95.4288 9.76523 95.1901 9.87C95.4801 9.966 95.7341 10.147 95.9201 10.39C96.1121 10.635 96.2151 10.939 96.2101 11.25C96.2152 11.4805 96.1695 11.7094 96.0762 11.9202C95.9828 12.1311 95.8442 12.3188 95.6701 12.47C95.3219 12.7912 94.8638 12.9666 94.3901 12.96L92.0901 13ZM92.8601 9.57H94.2601C94.3909 9.57546 94.5212 9.55234 94.6421 9.50225C94.763 9.45217 94.8715 9.37632 94.9601 9.28C95.0487 9.19972 95.1201 9.10243 95.1702 8.99393C95.2204 8.88543 95.2481 8.76795 95.2518 8.64849C95.2556 8.52904 95.2352 8.41005 95.192 8.29864C95.1487 8.18722 95.0835 8.08566 95.0001 8C94.9166 7.90548 94.8132 7.83049 94.6974 7.78038C94.5816 7.73026 94.4562 7.70623 94.3301 7.71H92.9001L92.8601 9.57ZM92.8601 12.26H94.4101C94.5456 12.2645 94.6803 12.2391 94.8048 12.1855C94.9293 12.1319 95.0403 12.0515 95.1301 11.95C95.3064 11.7671 95.4065 11.524 95.4101 11.27C95.4101 11.0048 95.3048 10.7504 95.1172 10.5629C94.9297 10.3754 94.6753 10.27 94.4101 10.27H92.8901L92.8601 12.26Z" fill="white" stroke="white" stroke-width="0.2" stroke-miterlimit="10"/>
</g>
<defs>
<linearGradient id="paint0_linear_84_7" x1="21.7999" y1="8.71" x2="5.0199" y2="25.49" gradientUnits="userSpaceOnUse">
<stop stop-color="#00A0FF"/>
<stop offset="0.01" stop-color="#00A1FF"/>
<stop offset="0.26" stop-color="#00BEFF"/>
<stop offset="0.51" stop-color="#00D2FF"/>
<stop offset="0.76" stop-color="#00DFFF"/>
<stop offset="1" stop-color="#00E3FF"/>
</linearGradient>
<linearGradient id="paint1_linear_84_7" x1="33.8299" y1="20" x2="9.6399" y2="20" gradientUnits="userSpaceOnUse">
<stop stop-color="#FFE000"/>
<stop offset="0.41" stop-color="#FFBD00"/>
<stop offset="0.78" stop-color="#FFA500"/>
<stop offset="1" stop-color="#FF9C00"/>
</linearGradient>
<linearGradient id="paint2_linear_84_7" x1="24.8299" y1="22.3" x2="2.06994" y2="45.05" gradientUnits="userSpaceOnUse">
<stop stop-color="#FF3A44"/>
<stop offset="1" stop-color="#C31162"/>
</linearGradient>
<linearGradient id="paint3_linear_84_7" x1="7.29993" y1="0.180003" x2="17.4599" y2="10.34" gradientUnits="userSpaceOnUse">
<stop stop-color="#32A071"/>
<stop offset="0.07" stop-color="#2DA771"/>
<stop offset="0.48" stop-color="#15CF74"/>
<stop offset="0.8" stop-color="#06E775"/>
<stop offset="1" stop-color="#00F076"/>
</linearGradient>
<clipPath id="clip0_84_7">
<rect width="135" height="40" fill="white"/>
</clipPath>
</defs>
</svg>
