<svg width="14" height="14" viewBox="0 0 14 14" fill="none" xmlns="http://www.w3.org/2000/svg">
<path d="M7.45102 0.490014C7.31118 0.419353 7.15669 0.382538 7.00002 0.382538C6.84334 0.382538 6.68885 0.419353 6.54902 0.490014C6.30402 0.613014 6.17102 0.849014 6.08802 1.01801C5.99802 1.20001 5.90302 1.44501 5.79202 1.73001L4.86402 4.12001C4.84228 4.17831 4.81894 4.236 4.79402 4.29301V4.29501H4.79002C4.75402 4.30101 4.70402 4.30501 4.60602 4.31501L2.10202 4.52901C1.83002 4.55301 1.59202 4.57301 1.40702 4.60601C1.23102 4.63801 0.989017 4.69601 0.807017 4.88001C0.70099 4.98761 0.620716 5.11782 0.572221 5.26088C0.523727 5.40394 0.508272 5.55613 0.527017 5.70601C0.557017 5.96201 0.713017 6.15601 0.834017 6.28901C0.960017 6.42801 1.13602 6.58901 1.33702 6.77401L3.32402 8.59701L3.44902 8.71501L3.45102 8.71701V8.72001C3.44502 8.75301 3.43502 8.79901 3.41502 8.88801L2.82302 11.548C2.76482 11.7893 2.71645 12.0328 2.67802 12.278C2.65402 12.462 2.63602 12.723 2.76502 12.958C2.83956 13.0936 2.94456 13.2101 3.07175 13.2983C3.19894 13.3864 3.34486 13.4438 3.49802 13.466C3.76302 13.504 4.00202 13.394 4.16502 13.306C4.38091 13.184 4.59175 13.0532 4.79702 12.914L6.83302 11.582C6.91902 11.526 6.96302 11.497 6.99702 11.478L7.00002 11.476L7.00302 11.478C7.03602 11.497 7.08102 11.526 7.16702 11.582L9.20302 12.914C9.44902 13.075 9.66102 13.214 9.83502 13.307C9.99802 13.394 10.236 13.504 10.502 13.466C10.6552 13.4438 10.8011 13.3864 10.9283 13.2983C11.0555 13.2101 11.1605 13.0936 11.235 12.958C11.365 12.723 11.345 12.462 11.322 12.278C11.2836 12.0328 11.2352 11.7893 11.177 11.548L10.585 8.88801C10.565 8.79801 10.555 8.75301 10.55 8.72001V8.71701L10.551 8.71501L10.676 8.59701L12.663 6.77401C12.864 6.58901 13.04 6.42801 13.166 6.28901C13.286 6.15601 13.442 5.96201 13.474 5.70601C13.4926 5.55605 13.477 5.40382 13.4284 5.26075C13.3797 5.11769 13.2992 4.98752 13.193 4.88001C13.011 4.69701 12.769 4.63801 12.593 4.60601C12.408 4.57301 12.17 4.55301 11.898 4.52901L9.39402 4.31401C9.33253 4.3097 9.27117 4.30369 9.21002 4.29601H9.20702L9.20502 4.29301C9.18047 4.23631 9.15746 4.17896 9.13602 4.12101L8.20802 1.73101C8.11891 1.48949 8.02016 1.25163 7.91202 1.01801C7.82902 0.848014 7.69602 0.613014 7.45202 0.489014L7.45102 0.490014Z" fill="url(#paint0_linear_17_121)"/>
<defs>
<linearGradient id="paint0_linear_17_121" x1="0.519287" y1="0.382538" x2="13.4816" y2="0.382538" gradientUnits="userSpaceOnUse">
<stop offset="0.640625" stop-color="#F5B40D" stop-opacity="0.5"/>
</linearGradient>
</defs>
</svg>
