<svg width="32" height="29" viewBox="0 0 32 29" fill="none" xmlns="http://www.w3.org/2000/svg">
<rect width="32" height="28.9387" rx="4" fill="#C4C4C4" fill-opacity="0.2"/>
<path d="M23.6092 10.5662C23.7274 10.2135 23.6092 9.95405 23.0462 9.95405H21.187C21.0133 9.94352 20.8404 9.98376 20.6945 10.0687C20.5485 10.1537 20.4374 10.2787 20.3777 10.4251C20.3777 10.4251 19.4319 12.4882 18.092 13.8258C17.6585 14.2137 17.4615 14.3372 17.225 14.3372C17.1068 14.3372 16.9295 14.2112 16.9295 13.8611V10.5662C16.9295 10.143 16.7986 9.95405 16.4045 9.95405H13.4827C13.364 9.9482 13.2476 9.98469 13.1589 10.0555C13.0703 10.1264 13.0167 10.2257 13.0098 10.3319C13.0098 10.7337 13.6797 10.8256 13.7487 11.9542V14.409C13.7487 14.9468 13.6403 15.0387 13.4038 15.0387C12.7733 15.0387 11.2392 12.9668 10.33 10.5951C10.1513 10.1342 9.97251 9.94775 9.4982 9.94775H7.63757C7.10556 9.94775 7 10.1719 7 10.4188C7 10.8596 7.63053 13.0462 9.93591 15.938C11.4728 17.9129 13.6375 18.9835 15.6079 18.9835C16.7901 18.9835 16.9365 18.7455 16.9365 18.3361V16.8486C16.9365 16.3726 17.0491 16.2781 17.4235 16.2781C17.705 16.2781 18.1722 16.404 19.2757 17.3537C20.5424 18.4873 20.745 18.9911 21.4544 18.9911H23.3136C23.8456 18.9911 24.1102 18.753 23.9568 18.2845C23.8034 17.816 23.1869 17.1383 22.3875 16.3348C21.954 15.8763 21.3038 15.3826 21.1067 15.1357C20.8252 14.8183 20.9097 14.6772 21.1067 14.3951C21.1067 14.3913 23.3727 11.5347 23.6092 10.5662Z" fill="white" fill-opacity="0.7"/>
</svg>
